<?xml version="1.0" encoding="UTF-8" standalone="no"?>
<!-- Created with Inkscape (http://www.inkscape.org/) -->

<svg
   xmlns:dc="http://purl.org/dc/elements/1.1/"
   xmlns:cc="http://creativecommons.org/ns#"
   xmlns:rdf="http://www.w3.org/1999/02/22-rdf-syntax-ns#"
   xmlns:svg="http://www.w3.org/2000/svg"
   xmlns="http://www.w3.org/2000/svg"
   xmlns:xlink="http://www.w3.org/1999/xlink"
   xmlns:sodipodi="http://sodipodi.sourceforge.net/DTD/sodipodi-0.dtd"
   xmlns:inkscape="http://www.inkscape.org/namespaces/inkscape"
   width="167"
   height="167"
   viewBox="0 0 166.99999 166.99999"
   id="svg2"
   version="1.1"
   inkscape:version="0.91 r13725"
   sodipodi:docname="icon-167.svg"
   inkscape:export-filename="/Users/findutnyy/Downloads/derivepass-167x167-sharp.png"
   inkscape:export-xdpi="90"
   inkscape:export-ydpi="90">
  <defs
     id="defs4">
    <linearGradient
       inkscape:collect="always"
       id="linearGradient4255">
      <stop
         style="stop-color:#3d79de;stop-opacity:1"
         offset="0"
         id="stop4257" />
      <stop
         style="stop-color:#9cd8eb;stop-opacity:1"
         offset="1"
         id="stop4259" />
    </linearGradient>
    <linearGradient
       inkscape:collect="always"
       xlink:href="#linearGradient4255"
       id="linearGradient4261"
       x1="127.99998"
       y1="1052.3622"
       x2="127.99998"
       y2="796.36218"
       gradientUnits="userSpaceOnUse"
       gradientTransform="matrix(0.6523335,0,0,0.6523335,0,365.87108)" />
  </defs>
  <sodipodi:namedview
     id="base"
     pagecolor="#ffffff"
     bordercolor="#666666"
     borderopacity="1.0"
     inkscape:pageopacity="0.0"
     inkscape:pageshadow="2"
     inkscape:zoom="3.7305971"
     inkscape:cx="83.498698"
     inkscape:cy="83.498695"
     inkscape:document-units="px"
     inkscape:current-layer="layer1"
     showgrid="true"
     units="px"
     showguides="false"
     inkscape:guide-bbox="true"
     inkscape:window-width="1440"
     inkscape:window-height="825"
     inkscape:window-x="0"
     inkscape:window-y="1"
     inkscape:window-maximized="1"
     inkscape:showpageshadow="false"
     borderlayer="true">
    <sodipodi:guide
       position="127.99999,127.99999"
       orientation="1,0"
       id="guide3365"
       inkscape:label=""
       inkscape:color="rgb(0,0,255)" />
    <sodipodi:guide
       position="127.99999,127.99999"
       orientation="0,1"
       id="guide4239"
       inkscape:label=""
       inkscape:color="rgb(0,0,255)" />
    <sodipodi:guide
       position="0,0"
       orientation="1,0"
       id="guide4241"
       inkscape:label=""
       inkscape:color="rgb(0,0,255)" />
    <sodipodi:guide
       position="0,0"
       orientation="0,1"
       id="guide4243"
       inkscape:label=""
       inkscape:color="rgb(0,0,255)" />
    <sodipodi:guide
       position="255.99998,255.99999"
       orientation="1,0"
       id="guide4245"
       inkscape:label=""
       inkscape:color="rgb(0,0,255)" />
    <sodipodi:guide
       position="0,255.99999"
       orientation="0,1"
       id="guide4249"
       inkscape:label=""
       inkscape:color="rgb(0,0,255)" />
    <inkscape:grid
       type="xygrid"
       id="grid3408" />
  </sodipodi:namedview>
  <metadata
     id="metadata7">
    <rdf:RDF>
      <cc:Work
         rdf:about="">
        <dc:format>image/svg+xml</dc:format>
        <dc:type
           rdf:resource="http://purl.org/dc/dcmitype/StillImage" />
        <dc:title></dc:title>
      </cc:Work>
    </rdf:RDF>
  </metadata>
  <g
     inkscape:label="Layer 1"
     inkscape:groupmode="layer"
     id="layer1"
     transform="translate(0,-885.3622)">
    <rect
       style="fill:url(#linearGradient4261);fill-opacity:1;stroke:none"
       id="rect4253"
       width="166.99738"
       height="166.99738"
       x="0"
       y="885.36481" />
    <path
       style="fill:#ffffff;fill-opacity:1;fill-rule:evenodd;stroke:none;stroke-width:1px;stroke-linecap:butt;stroke-linejoin:miter;stroke-opacity:1"
       d="m 83.498675,895.36854 c -20.190555,10e-6 -36.514152,16.8013 -36.508754,36.99188 l 0.0099,37.01406 c -5.845538,7.84678 -8.998322,17.1988 -9.016197,26.98359 -1.32e-4,25.17733 20.337811,45.99193 45.515055,45.99183 25.177241,10e-5 45.505441,-20.8079 45.505311,-45.98514 -0.0195,-9.78212 -3.17025,-19.16924 -9.01421,-27.01388 l 0.0159,-36.98315 c 0.009,-20.19058 -16.31647,-36.99918 -36.507025,-36.99919 z m 0,10.02667 c 15.142913,10e-6 27.495725,11.82228 27.501285,26.96521 l 0.0103,28.01721 c -7.89611,-5.96886 -17.625835,-9.99896 -27.524093,-10.01442 -9.900304,0.0206 -19.596232,4.02477 -27.490099,10 l 0.01936,-28.00279 c 0.01047,-15.14292 12.340302,-26.9652 27.483216,-26.96521 z m -4.481574,58.97134 8.98079,0.0176 0.01764,4.96606 c 13.181029,2.228 22.959269,13.6553 22.974099,27.02331 -3e-5,15.14288 -12.332568,26.98498 -27.475467,26.98498 -15.1429,0 -27.497659,-11.8385 -27.497687,-26.98142 0.0023,-13.37771 9.792406,-24.78762 22.982983,-27.01724 z m -0.0077,14.0003 -0.01342,5.0097 c -5.471256,1.93438 -8.995262,7.17743 -9.00293,12.98058 -9e-6,7.57147 5.954814,14.02007 13.526279,14.02007 7.571466,0 13.484318,-6.4575 13.484309,-14.02902 -0.0067,-5.80396 -3.516821,-11.03921 -8.988848,-12.97386 l 0,-5.00747 z"
       id="path3383"
       inkscape:connector-curvature="0"
       sodipodi:nodetypes="cscccccsscccccssccccsccccccscccccc" />
  </g>
</svg>
